<?xml version="1.0" encoding="UTF-8" standalone="no"?>
<!-- Created with Inkscape (http://www.inkscape.org/) -->

<svg
   xmlns:dc="http://purl.org/dc/elements/1.1/"
   xmlns:cc="http://creativecommons.org/ns#"
   xmlns:rdf="http://www.w3.org/1999/02/22-rdf-syntax-ns#"
   xmlns:svg="http://www.w3.org/2000/svg"
   xmlns="http://www.w3.org/2000/svg"
   xmlns:sodipodi="http://sodipodi.sourceforge.net/DTD/sodipodi-0.dtd"
   xmlns:inkscape="http://www.inkscape.org/namespaces/inkscape"
   id="svg2"
   version="1.1"
   inkscape:version="0.91 r13725"
   xml:space="preserve"
   width="631.86249"
   height="233.41251"
   viewBox="0 0 631.86249 233.41251"
   sodipodi:docname="uon_logo.svg"><metadata
     id="metadata8"><rdf:RDF><cc:Work
         rdf:about=""><dc:format>image/svg+xml</dc:format><dc:type
           rdf:resource="http://purl.org/dc/dcmitype/StillImage" /><dc:title></dc:title></cc:Work></rdf:RDF></metadata><defs
     id="defs6"><clipPath
       clipPathUnits="userSpaceOnUse"
       id="clipPath102"><path
         d="m 0,0 1868,0 0,1867 L 0,1867 0,0 Z"
         id="path104"
         inkscape:connector-curvature="0" /></clipPath><radialGradient
       fx="0"
       fy="0"
       cx="0"
       cy="0"
       r="1"
       gradientUnits="userSpaceOnUse"
       gradientTransform="matrix(2362.06,0,0,-2362.06,-16.384,2035.86)"
       spreadMethod="pad"
       id="radialGradient106"><stop
         style="stop-opacity:1;stop-color:#3ea0be"
         offset="0"
         id="stop108" /><stop
         style="stop-opacity:1;stop-color:#3ea0be"
         offset="0.1735"
         id="stop110" /><stop
         style="stop-opacity:1;stop-color:#27356d"
         offset="1"
         id="stop112" /></radialGradient></defs><sodipodi:namedview
     pagecolor="#ffffff"
     bordercolor="#666666"
     borderopacity="1"
     objecttolerance="10"
     gridtolerance="10"
     guidetolerance="10"
     inkscape:pageopacity="0"
     inkscape:pageshadow="2"
     inkscape:window-width="1568"
     inkscape:window-height="918"
     id="namedview4"
     showgrid="false"
     inkscape:zoom="0.58082258"
     inkscape:cx="315.93124"
     inkscape:cy="116.70625"
     inkscape:window-x="65"
     inkscape:window-y="24"
     inkscape:window-maximized="0"
     inkscape:current-layer="g10" /><g
     id="g10"
     inkscape:groupmode="layer"
     inkscape:label="ink_ext_XXXXXX"
     transform="matrix(1.25,0,0,-1.25,0,233.4125)"><g
       id="g12"
       transform="scale(0.1,0.1)"><path
         d="m 2904,30.8789 -5.51,16.7422 c -24.27,-7.5117 -39.86,-10.6719 -51.71,-10.6719 -32.97,0 -51.17,29.1797 -51.17,82.3518 0,49.437 19.36,76.64 54.61,76.64 12.46,0 26.6,-1.75 45.08,-5.781 l 4.09,17.309 c -17.93,5.48 -36.43,8.633 -50.32,8.633 -50.59,0 -78.28,-35.223 -78.28,-99.973 0,-62.7188 27.13,-99.6798 72.21,-99.6798 15.63,0 37.86,5.211 61,14.4297 l 0,0"
         style="fill:#27366d;fill-opacity:1;fill-rule:nonzero;stroke:none"
         id="path14"
         inkscape:connector-curvature="0" /><path
         d="m 3079.84,20.1992 0,192.7498 -23.06,0 0,-82.668 -92.53,0 0,82.668 -23.11,0 0,-192.7498 23.11,0 0,92.7698 92.53,0 0,-92.7698 23.06,0 0,0"
         style="fill:#27366d;fill-opacity:1;fill-rule:nonzero;stroke:none"
         id="path16"
         inkscape:connector-curvature="0" /><path
         d="m 3149.61,20.1797 0,192.7893 -23.07,0 0,-192.7893 23.07,0 0,0"
         style="fill:#27366d;fill-opacity:1;fill-rule:nonzero;stroke:none"
         id="path18"
         inkscape:connector-curvature="0" /><path
         d="m 3335.28,20.1992 0,192.7498 -19.32,0 0,-171.3904 -86.71,171.3904 -32.92,0 0,-192.7498 19.33,0 0,169.0898 86.75,-169.0898 32.87,0 0,0"
         style="fill:#27366d;fill-opacity:1;fill-rule:nonzero;stroke:none"
         id="path20"
         inkscape:connector-curvature="0" /><path
         d="m 3407.93,89.5391 34.68,103.4809 35.84,-103.4809 -70.52,0 z m 49.44,123.4099 -26.28,0 -68.53,-192.7498 20.83,0 18.5,51.7305 83.23,0 18.77,-51.7305 23.71,0 -70.23,192.7498"
         style="fill:#27366d;fill-opacity:1;fill-rule:nonzero;stroke:none"
         id="path22"
         inkscape:connector-curvature="0" /><path
         d="m 4018.55,20.1797 -6.35,192.8003 -32.93,0 -55.52,-174.3511 -56.09,174.3511 -32.94,0 -6.37,-192.8003 21.37,0 3.78,170.5503 54.9,-170.5503 27.78,0 55.5,170.5503 3.19,-170.5503 23.68,0 0,0"
         style="fill:#27366d;fill-opacity:1;fill-rule:nonzero;stroke:none"
         id="path24"
         inkscape:connector-curvature="0" /><path
         d="m 4091.09,89.5391 34.67,103.5119 35.87,-103.5119 -70.54,0 z m 49.43,123.4409 -26.31,0 -68.5,-192.8003 20.82,0 18.49,51.75 83.28,0 18.78,-51.75 23.71,0 -70.27,192.8003"
         style="fill:#27366d;fill-opacity:1;fill-rule:nonzero;stroke:none"
         id="path26"
         inkscape:connector-curvature="0" /><path
         d="m 4349.13,20.1797 0,17.3086 -86.11,0 0,175.4917 -23.08,0 0,-192.8003 109.19,0 0,0"
         style="fill:#27366d;fill-opacity:1;fill-rule:nonzero;stroke:none"
         id="path28"
         inkscape:connector-curvature="0" /><path
         d="m 4411.31,89.5391 34.66,103.5119 35.88,-103.5119 -70.54,0 z m 49.41,123.4409 -26.31,0 -68.48,-192.8003 20.81,0 18.49,51.75 83.25,0 18.82,-51.75 23.7,0 -70.28,192.8003"
         style="fill:#27366d;fill-opacity:1;fill-rule:nonzero;stroke:none"
         id="path30"
         inkscape:connector-curvature="0" /><path
         d="m 4672.53,212.98 -23.14,0 -51.14,-89.031 -52.6,89.031 -26.56,0 65.6,-108.378 0,-84.4223 23.12,0 0,84.4223 64.72,108.378 0,0"
         style="fill:#27366d;fill-opacity:1;fill-rule:nonzero;stroke:none"
         id="path32"
         inkscape:connector-curvature="0" /><path
         d="m 4800.67,75.0898 c 0,29.1992 -10.96,41.9222 -53.16,54.9222 -36.16,10.988 -41.08,16.207 -41.08,33.539 0,20.558 14.73,32.109 35.86,32.109 11.85,0 26.65,-2.039 45.68,-6.07 l 4.04,17.031 c -17.9,5.211 -35.23,8.098 -50.57,8.098 -35.32,0 -58.08,-20.231 -58.08,-53.18 0,-44.527 44.47,-47.129 75.7,-61.32 15.05,-6.6174 18.54,-13.8596 18.54,-28.0393 0,-20.7891 -18.22,-34.6914 -42.83,-34.6914 -13.85,0 -29.2,2.6133 -48.52,7.5234 l -4.94,-17.6211 c 21.39,-6.3515 36.67,-8.9297 54.93,-8.9297 39.02,0 64.43,21.6407 64.43,56.6289 l 0,0"
         style="fill:#27366d;fill-opacity:1;fill-rule:nonzero;stroke:none"
         id="path34"
         inkscape:connector-curvature="0" /><path
         d="m 4859.75,20.1719 0,192.8281 -23.14,0 0,-192.8281 23.14,0 0,0"
         style="fill:#27366d;fill-opacity:1;fill-rule:nonzero;stroke:none"
         id="path36"
         inkscape:connector-curvature="0" /><path
         d="m 4934.19,89.5391 34.71,103.5119 35.83,-103.5119 -70.54,0 z m 49.45,123.4409 -26.31,0 -68.52,-192.8003 20.81,0 18.53,51.75 83.25,0 18.78,-51.75 23.7,0 -70.24,192.8003"
         style="fill:#27366d;fill-opacity:1;fill-rule:nonzero;stroke:none"
         id="path38"
         inkscape:connector-curvature="0" /><path
         d="m 2319.57,98.5 0,114.219 -19.3,0 0,-122.5979 c 0,-17.6016 -1.44,-27.4219 -5.48,-34.6211 -6.92,-12.6992 -21.36,-19.3398 -42.13,-19.3398 -32.32,0 -48.19,14.4101 -48.19,46.4492 l 0,130.1096 -23.05,0 0,-113.0784 c 0,-36.6601 1.44,-45.8906 10.08,-58.2812 10.38,-14.9805 32.3,-24.1875 57.7,-24.1875 23.94,0 42.42,6.0273 54.53,17.5469 13.25,12.9726 15.84,23.0625 15.84,63.7812 l 0,0"
         style="fill:#27366d;fill-opacity:1;fill-rule:nonzero;stroke:none"
         id="path40"
         inkscape:connector-curvature="0" /><path
         d="m 2497.45,20.3398 -88.56,102.9692 86.25,89.41 -27.41,0 -83.65,-87.68 0,87.68 -23.03,0 0,-192.3792 23.03,0 0,99.2302 84.53,-99.2302 28.84,0 0,0"
         style="fill:#27366d;fill-opacity:1;fill-rule:nonzero;stroke:none"
         id="path42"
         inkscape:connector-curvature="0" /><path
         d="m 2620.3,0.21875 9.0977,0 0,232.113 -9.0977,0 0,-232.113 z"
         style="fill:#27366d;fill-opacity:1;fill-rule:nonzero;stroke:none"
         id="path44"
         inkscape:connector-curvature="0" /><path
         d="m 3659.6,0.21875 9.0977,0 0,232.113 -9.0977,0 0,-232.113 z"
         style="fill:#27366d;fill-opacity:1;fill-rule:nonzero;stroke:none"
         id="path46"
         inkscape:connector-curvature="0" /><path
         d="m 4980.96,495.871 0,231.688 c 0,29.062 -15.83,53.332 -54.6,53.332 -21.81,0 -37.6,-6.09 -50.95,-19.403 3.66,-10.898 4.87,-21.847 4.87,-44.859 l 0,-220.758 -74,0 0,231.688 c 0,26.64 -7.27,54.562 -54.6,54.562 -24.2,0 -32.76,-3.66 -46.04,-9.75 l 0,-276.5 -74.01,0 0,305.609 c 27.93,12.149 67.88,26.692 123.7,26.692 46.11,0 76.43,-10.871 94.62,-26.692 21.85,15.821 50.91,26.692 93.42,26.692 77.58,0 111.55,-44.863 111.55,-100.613 l 0,-231.688 -73.96,0 0,0"
         style="fill:#27366d;fill-opacity:1;fill-rule:nonzero;stroke:none"
         id="path48"
         inkscape:connector-curvature="0" /><path
         d="m 4201.49,495.871 0,226.809 c 0,31.519 -13.35,54.539 -54.57,54.539 -23.09,0 -38.84,-6.028 -54.55,-15.731 l 0,-265.617 -74,0 0,436.609 74,0 0,-121.3 c 19.36,8.511 47.25,14.57 72.76,14.57 81.27,0 110.32,-48.531 110.32,-98.191 l 0,-231.688 -73.96,0 0,0"
         style="fill:#27366d;fill-opacity:1;fill-rule:nonzero;stroke:none"
         id="path50"
         inkscape:connector-curvature="0" /><path
         d="m 3300.12,869.219 c -28.15,0 -42.84,18.406 -42.84,39.195 0,20.746 14.69,39.113 42.84,39.113 26.87,0 42.76,-18.367 42.76,-39.113 0,-20.789 -15.89,-39.195 -42.76,-39.195 l 0,0"
         style="fill:#27366d;fill-opacity:1;fill-rule:nonzero;stroke:none"
         id="path52"
         inkscape:connector-curvature="0" /><path
         d="m 3574.47,495.871 0,231.688 c 0,26.64 -10.91,54.562 -58.25,54.562 -24.23,0 -36.39,-3.66 -49.74,-9.75 l 0,-276.5 -73.95,0 0,305.609 c 27.88,12.149 71.52,26.692 127.34,26.692 97.02,0 128.57,-47.281 128.57,-99.461 l 0,-232.84 -73.97,0 0,0"
         style="fill:#27366d;fill-opacity:1;fill-rule:nonzero;stroke:none"
         id="path54"
         inkscape:connector-curvature="0" /><path
         d="m 3263.06,495.871 0,326.238 74.04,0 0,-326.238 -74.04,0 0,0"
         style="fill:#27366d;fill-opacity:1;fill-rule:nonzero;stroke:none"
         id="path56"
         inkscape:connector-curvature="0" /><path
         d="m 3166.29,492.262 c -64.29,0 -89.74,36.359 -89.74,88.527 l 0,194.012 -36.4,0 0,47.308 36.4,0 0,65.536 73.98,20.566 0,-86.102 52.17,0 0,-47.308 -52.17,0 0,-194.012 c 0,-29.098 15.76,-37.641 36.41,-37.641 6.05,0 14.53,0 21.83,1.223 l 0,-48.5 c -7.3,-1.18 -26.71,-3.609 -42.48,-3.609 l 0,0"
         style="fill:#27366d;fill-opacity:1;fill-rule:nonzero;stroke:none"
         id="path58"
         inkscape:connector-curvature="0" /><path
         d="m 2968.8,492.262 c -64.29,0 -89.76,36.359 -89.76,88.527 l 0,194.012 -36.38,0 0,47.308 36.38,0 0,65.536 74.01,20.566 0,-86.102 52.13,0 0,-47.308 -52.13,0 0,-194.012 c 0,-29.098 15.75,-37.641 36.4,-37.641 6.07,0 14.54,0 21.82,1.223 l 0,-48.5 c -7.28,-1.18 -26.69,-3.609 -42.47,-3.609 l 0,0"
         style="fill:#27366d;fill-opacity:1;fill-rule:nonzero;stroke:none"
         id="path60"
         inkscape:connector-curvature="0" /><path
         d="m 2431.24,495.871 -155.26,261.961 c -9.69,15.777 -16.95,31.527 -25.44,50.93 l -1.21,0 c 2.4,-20.571 3.63,-37.571 3.63,-53.332 l 0,-259.559 -71.54,0 0,416.004 76.4,0 144.33,-244.996 c 8.48,-14.539 15.74,-27.891 23.05,-47.258 l 1.21,0 c -2.46,20.598 -2.46,35.117 -2.46,49.688 l 0,242.566 71.56,0 0,-416.004 -64.27,0 0,0"
         style="fill:#27366d;fill-opacity:1;fill-rule:nonzero;stroke:none"
         id="path62"
         inkscape:connector-curvature="0" /><path
         d="m 4501.98,537.129 c -8.52,-3.629 -26.72,-8.508 -43.64,-8.508 -38.85,0 -65.53,25.481 -65.53,70.391 0,42.386 23.1,71.508 67.97,71.508 20.61,0 33.93,-3.641 41.2,-4.84 l 0,-128.551 z m -50.92,291.043 c -50.94,0 -89.79,-14.543 -111.55,-24.242 l 16.89,-44.891 c 19.44,9.75 49.72,20.633 81.29,20.633 38.84,0 64.29,-10.883 64.29,-53.34 l 0,-18.211 c -6.09,1.211 -27.89,4.867 -47.29,4.867 -75.2,0 -135.83,-38.84 -135.83,-116.406 0,-63.082 42.41,-110.383 134.61,-110.383 50.94,0 92.18,9.672 120.08,23 l 0,204.973 c 0,84.918 -54.59,114 -122.49,114 l 0,0"
         style="fill:#27366d;fill-opacity:1;fill-rule:nonzero;stroke:none"
         id="path64"
         inkscape:connector-curvature="0" /><path
         d="m 3887.5,552.859 c -10.88,-6.027 -25.43,-10.839 -42.39,-10.839 -52.13,0 -75.23,38.769 -75.23,113.91 0,77.672 24.29,126.191 78.81,126.191 15.78,0 27.93,-1.23 38.81,-7.32 l 0,-221.942 z m -37.9,275.313 c -105.28,0 -157.29,-66.684 -157.29,-172.242 0,-101.828 52.01,-162.481 130.68,-162.481 29.05,0 50.83,4.871 64.09,12.141 l 0,-20.629 c 0,-43.621 -22.98,-71.531 -77.43,-71.531 -36.24,0 -59.3,9.699 -78.65,18.152 l -20.59,-46.07 c 24.26,-13.352 63,-24.211 112.58,-24.211 81.09,0 136.76,44.801 136.76,130.961 l 0,312.918 c -21.8,12.121 -60.53,22.992 -110.15,22.992 l 0,0"
         style="fill:#27366d;fill-opacity:1;fill-rule:nonzero;stroke:none"
         id="path66"
         inkscape:connector-curvature="0" /><path
         d="m 2686.36,534.68 c -50.97,0 -59.42,65.492 -59.42,123.73 0,59.442 8.45,124.899 59.42,124.899 50.92,0 59.43,-65.457 59.43,-124.899 0,-58.238 -8.51,-123.73 -59.43,-123.73 l 0,0 z m -4.8,293.492 c -92.17,0 -138.24,-70.34 -138.24,-169.762 0,-98.262 46.07,-168.578 138.24,-168.578 92.2,0 138.25,70.316 138.25,168.578 0,99.422 -46.05,169.762 -138.25,169.762 l 0,0"
         style="fill:#27366d;fill-opacity:1;fill-rule:nonzero;stroke:none"
         id="path68"
         inkscape:connector-curvature="0" /><path
         d="m 4412.93,1329.63 c -27.36,0 -33.15,-12.98 -33.15,-33.09 l 0,-10.14 38.98,0 0,-40.35 -38.98,0 0,-183.02 -59.1,0 0,183.02 -24.49,0 0,40.35 24.49,0 0,15.87 c 0,44.7 28.85,69.19 77.87,69.19 10.07,0 17.27,0 25.9,-1.46 l 0,-40.37 -11.52,0 0,0"
         style="fill:#27366d;fill-opacity:1;fill-rule:nonzero;stroke:none"
         id="path70"
         inkscape:connector-curvature="0" /><path
         d="m 3860.15,973.652 c -33.22,0 -59.1,7.235 -76.4,15.903 l 12.99,34.595 c 12.93,-5.79 30.19,-11.58 54.73,-11.58 37.5,0 49.01,17.31 49.01,46.12 l 0,14.46 c -7.13,-4.38 -21.6,-10.12 -46.1,-10.12 -54.77,0 -79.32,27.36 -79.32,72.04 l 0,151.33 59.15,0 0,-148.41 c 0,-20.2 7.18,-36.03 36,-36.03 14.41,0 23.14,4.31 30.27,7.18 l 0,177.26 59.16,0 0,-214.72 c 0,-70.63 -41.89,-98.028 -99.49,-98.028 l 0,0"
         style="fill:#27366d;fill-opacity:1;fill-rule:nonzero;stroke:none"
         id="path72"
         inkscape:connector-curvature="0" /><path
         d="m 3701.69,1060.16 c -43.17,0 -64.82,23.07 -64.82,60.51 l 0,125.38 -24.56,0 0,40.35 24.56,0 0,46.14 59.09,15.83 0,-61.97 36.02,0 0,-40.35 -36.02,0 0,-119.61 c 0,-20.17 10.09,-25.93 24.46,-25.93 7.22,0 12.98,0 20.21,1.45 l 0,-37.45 c -5.79,-1.48 -17.37,-4.35 -38.94,-4.35 l 0,0"
         style="fill:#27366d;fill-opacity:1;fill-rule:nonzero;stroke:none"
         id="path74"
         inkscape:connector-curvature="0" /><path
         d="m 3513.04,1063.03 0,223.37 58.99,0 0,-223.37 -58.99,0 0,0"
         style="fill:#27366d;fill-opacity:1;fill-rule:nonzero;stroke:none"
         id="path76"
         inkscape:connector-curvature="0" /><path
         d="m 3390.87,1058.69 c -28.84,0 -51.87,7.23 -69.16,15.86 l 14.4,37.47 c 11.59,-5.75 27.41,-12.98 46.17,-12.98 21.56,0 34.54,7.23 34.54,24.48 0,15.91 -10.03,23.11 -36.04,33.14 -43.26,17.32 -51.91,43.27 -51.91,67.78 0,35.99 27.41,66.3 76.42,66.3 27.35,0 47.51,-7.22 63.44,-15.84 l -15.93,-34.61 c -7.12,4.34 -22.96,11.52 -40.33,11.52 -20.17,0 -30.19,-8.66 -30.19,-23.03 0,-15.89 15.78,-21.63 35.99,-30.25 44.63,-17.32 54.7,-43.27 54.7,-70.67 0,-40.34 -33.14,-69.17 -82.1,-69.17 l 0,0"
         style="fill:#27366d;fill-opacity:1;fill-rule:nonzero;stroke:none"
         id="path78"
         inkscape:connector-curvature="0" /><path
         d="m 3302.94,1246.05 c -4.3,1.48 -17.33,2.91 -27.32,2.91 -10.12,0 -18.86,-1.43 -24.59,-2.91 l 0,-183.02 -59.06,0 0,210.41 c 8.68,4.33 43.26,15.84 82.19,15.84 22.94,0 28.78,-1.46 37.44,-2.88 l -8.66,-40.35 0,0"
         style="fill:#27366d;fill-opacity:1;fill-rule:nonzero;stroke:none"
         id="path80"
         inkscape:connector-curvature="0" /><path
         d="m 2682.85,1313.8 c -21.61,0 -31.75,12.98 -31.75,28.84 0,15.81 10.14,28.82 31.75,28.82 20.21,0 31.69,-13.01 31.69,-28.82 0,-15.86 -11.48,-28.84 -31.69,-28.84 l 0,0"
         style="fill:#27366d;fill-opacity:1;fill-rule:nonzero;stroke:none"
         id="path82"
         inkscape:connector-curvature="0" /><path
         d="m 2873.78,1063.03 -56.22,0 -76.4,223.37 63.47,0 28.77,-105.19 c 2.94,-10.06 10.12,-36.02 12.93,-49.02 l 1.49,0 c 1.4,13 8.68,38.96 11.52,49.02 l 30.26,105.19 59.13,0 -74.95,-223.37 0,0"
         style="fill:#27366d;fill-opacity:1;fill-rule:nonzero;stroke:none"
         id="path84"
         inkscape:connector-curvature="0" /><path
         d="m 2652.06,1063.03 0,223.37 59.09,0 0,-223.37 -59.09,0 0,0"
         style="fill:#27366d;fill-opacity:1;fill-rule:nonzero;stroke:none"
         id="path86"
         inkscape:connector-curvature="0" /><path
         d="m 3543.82,1313.8 c -21.6,0 -31.74,12.98 -31.74,28.84 0,15.81 10.14,28.82 31.74,28.82 20.17,0 31.66,-13.01 31.66,-28.82 0,-15.86 -11.49,-28.84 -31.66,-28.84 l 0,0"
         style="fill:#27366d;fill-opacity:1;fill-rule:nonzero;stroke:none"
         id="path88"
         inkscape:connector-curvature="0" /><path
         d="m 2550.63,1063.03 0,157.09 c 0,15.86 -7.13,31.69 -36.04,31.69 -14.37,0 -23.01,-2.85 -30.19,-5.76 l 0,-183.02 -59.09,0 0,210.41 c 24.5,10.08 54.74,17.3 92.18,17.3 67.77,0 92.33,-33.15 92.33,-70.62 l 0,-157.09 -59.19,0 0,0"
         style="fill:#27366d;fill-opacity:1;fill-rule:nonzero;stroke:none"
         id="path90"
         inkscape:connector-curvature="0" /><path
         d="m 2282.31,1058.69 c -57.71,0 -100.89,30.26 -100.89,89.34 l 0,198.94 61.98,0 0,-198.94 c 0,-27.36 14.36,-41.76 38.91,-41.76 24.49,0 38.93,14.4 38.93,41.76 l 0,198.94 61.93,0 0,-198.94 c 0,-59.08 -43.19,-89.34 -100.86,-89.34 l 0,0"
         style="fill:#27366d;fill-opacity:1;fill-rule:nonzero;stroke:none"
         id="path92"
         inkscape:connector-curvature="0" /><path
         d="m 4175.71,1097.63 c -30.19,0 -37.38,34.56 -37.38,77.8 0,41.8 7.19,76.38 37.38,76.38 30.34,0 37.54,-34.58 37.54,-76.38 0,-43.24 -7.2,-77.8 -37.54,-77.8 l 0,0 z m 0,193.11 c -66.22,0 -97.98,-49.02 -97.98,-115.31 0,-67.75 31.76,-116.74 97.98,-116.74 66.33,0 98.08,48.99 98.08,116.74 0,66.29 -31.75,115.31 -98.08,115.31 l 0,0"
         style="fill:#27366d;fill-opacity:1;fill-rule:nonzero;stroke:none"
         id="path94"
         inkscape:connector-curvature="0" /><path
         d="m 3098.15,1194.14 -83.55,0 c 0,43.3 17.29,59.12 41.84,59.12 23.05,0 41.71,-14.4 41.71,-56.24 l 0,-2.88 z m 56.26,-14.36 c 0,70.57 -35.99,110.96 -96.59,110.96 -61.92,0 -99.46,-43.21 -99.46,-115.31 0,-74.92 41.82,-116.74 108.11,-116.74 34.58,0 60.53,7.23 79.25,17.3 l -14.41,38.96 c -15.79,-7.27 -33.16,-12.99 -59.05,-12.99 -27.41,0 -51.92,11.5 -56.26,54.7 l 138.41,0 0,23.12"
         style="fill:#27366d;fill-opacity:1;fill-rule:nonzero;stroke:none"
         id="path96"
         inkscape:connector-curvature="0" /><g
         id="g98"><g
           id="g100"
           clip-path="url(#clipPath102)"><path
             d="m 0,0 1868,0 0,1867 L 0,1867 0,0 Z"
             style="fill:url(#radialGradient106);fill-opacity:1;fill-rule:nonzero;stroke:none"
             id="path114"
             inkscape:connector-curvature="0" /></g></g><path
         d="m 1261,1417.92 c -42.27,22.99 -82.14,41.09 -136.49,54.38 l 0,-111.09 c 48.35,-10.87 94.22,-27.8 136.49,-47.11 l 0,103.82"
         style="fill:#ffffff;fill-opacity:1;fill-rule:nonzero;stroke:none"
         id="path116"
         inkscape:connector-curvature="0" /><path
         d="m 1076.22,1054.42 c -13.3,0 -24.16,-10.87 -24.16,-25.35 l -7.27,-227.07 64.03,0 -8.49,227.07 c 0,14.48 -9.6,25.35 -24.11,25.35"
         style="fill:#ffffff;fill-opacity:1;fill-rule:nonzero;stroke:none"
         id="path118"
         inkscape:connector-curvature="0" /><path
         d="m 1132.98,428.879 c -67.65,0 -115.93,15.691 -177.535,47 -66.441,33.859 -140.09,62.871 -234.312,62.871 -88.153,0 -182.36,-31.461 -253.61,-137.699 85.735,53.14 165.457,70.051 231.864,70.051 71.261,0 125.644,-18.141 181.16,-47.082 62.832,-32.61 117.152,-55.551 195.673,-55.551 76.08,0 161.83,28.941 235.5,125.543 -59.17,-49.442 -121.96,-65.133 -178.74,-65.133"
         style="fill:#ffffff;fill-opacity:1;fill-rule:nonzero;stroke:none"
         id="path120"
         inkscape:connector-curvature="0" /><path
         d="m 747.703,1029.07 c 0,14.48 10.883,25.35 24.168,25.35 13.301,0 24.145,-10.87 24.145,-25.35 l 8.476,-227.07 -64.062,0 7.273,227.07 z m 9.66,-452.91 c 60.371,0 130.442,-16.879 208.957,-60.398 l 0,224.609 -32.613,41.149 0,311.57 63.992,99.04 -26.562,-95.39 c 18.121,2.35 36.233,3.56 55.563,3.56 62.81,0 120.75,-10.83 170.29,-30.19 l 64.01,59.19 0,160.61 c -42.27,19.35 -88.14,35.06 -136.49,47.11 -28.99,7.28 -60.38,12.08 -91.77,15.7 l 0,138.92 c -33.822,4.82 -68.849,7.22 -105.064,7.22 -33.836,0 -67.656,-2.4 -100.258,-6.04 l 0,-131.61 c -31.402,-3.66 -61.598,-9.69 -90.578,-16.91 l 0,130.4 c -51.945,-14.5 -101.449,-35.01 -146.137,-60.38 l 0,-270.55 61.578,-59.16 -18.101,-304.301 -49.524,-49.539 0,-176.309 16.93,-18.121 c 41.047,21.691 92.969,39.82 155.777,39.82"
         style="fill:#ffffff;fill-opacity:1;fill-rule:nonzero;stroke:none"
         id="path122"
         inkscape:connector-curvature="0" /></g></g></svg>